<?xml version="1.0" encoding="UTF-8"?>
<svg width="467px" height="450px" viewBox="0 0 467 450" version="1.1" xmlns="http://www.w3.org/2000/svg" xmlns:xlink="http://www.w3.org/1999/xlink">
    <!-- Generator: Sketch 50.2 (55047) - http://www.bohemiancoding.com/sketch -->
    <title>__Oi--Logo__Group</title>
    <desc>Created with Sketch.</desc>
    <defs>
        <linearGradient x1="16.8407421%" y1="11.117724%" x2="90.9843809%" y2="88.0840748%" id="linearGradient-1">
            <stop stop-color="#E9278B" offset="0%"></stop>
            <stop stop-color="#D528AB" offset="6.204221%"></stop>
            <stop stop-color="#C129C9" offset="13.62%"></stop>
            <stop stop-color="#B229E1" offset="21.43%"></stop>
            <stop stop-color="#A72AF2" offset="29.7%"></stop>
            <stop stop-color="#A12AFC" offset="38.74%"></stop>
            <stop stop-color="#9F2AFF" offset="50%"></stop>
            <stop stop-color="#9C2DFF" offset="59.77%"></stop>
            <stop stop-color="#9237FF" offset="67.62%"></stop>
            <stop stop-color="#8248FF" offset="74.81%"></stop>
            <stop stop-color="#6A60FF" offset="81.59%"></stop>
            <stop stop-color="#4C7FFF" offset="88.1%"></stop>
            <stop stop-color="#28A4FF" offset="94.31%"></stop>
            <stop stop-color="#00CDFF" offset="100%"></stop>
        </linearGradient>
    </defs>
    <g id="Page-1" stroke="none" stroke-width="1" fill="none" fill-rule="evenodd">
        <g id="Group" fill-rule="nonzero">
            <path d="M463.3,288.8 C499.6,33.3 192.2,-108 30.1,102.8 C-131.1,312.3 411.9,650.6 462.8,292.5 L463.3,288.8 Z" id="Shape" fill="url(#linearGradient-1)"></path>
            <path d="M300.8,184.7 C312.7,184.7 322.3,175.1 322.3,163.2 C322.3,151.4 312.7,141.7 300.8,141.7 C289,141.7 279.4,151.3 279.4,163.2 C279.3,175 288.9,184.7 300.8,184.7 Z M301,200.6 C288.9,200.6 279.1,229.3 279.1,264.7 C279.1,300.1 288.9,328.8 301,328.8 C313.1,328.8 322.9,300.1 322.9,264.7 C322.9,229.3 313.1,200.6 301,200.6 Z M203.5,200.5 C167.5,200.5 143.6,229 143.6,264.6 C143.6,300.3 167.5,328.7 203.5,328.7 C239.4,328.7 263.2,300.3 263.2,264.6 C263.3,229 239.4,200.5 203.5,200.5 Z M203.5,298.5 C187,298.5 177.9,281.6 177.9,264.4 C177.9,247.2 187,230.8 203.5,230.8 C219.9,230.8 229,247.3 229,264.4 C229.1,281.6 220,298.5 203.5,298.5 Z" id="Shape" fill="#FFFFFF"></path>
        </g>
    </g>
</svg>