<svg width="77" height="57" viewBox="0 0 77 57" fill="none" xmlns="http://www.w3.org/2000/svg">
<path fill-rule="evenodd" clip-rule="evenodd" d="M48.5606 41.0313C48.4545 41.3281 48.2879 41.4844 48.0758 41.4844C48 41.4844 47.9091 41.4688 47.803 41.4219L47.3939 41.2188C47.0606 41.0469 46.8333 41 46.4697 41C45.4394 41 44.8636 41.9375 44.6667 43.0312H46.2424C46.3485 42.7344 46.5152 42.5781 46.7273 42.5781C46.803 42.5781 46.8939 42.5938 47 42.6406L47.4091 42.8438C47.7424 43.0156 47.9697 43.0625 48.3333 43.0625C49.3636 43.0625 49.9394 42.125 50.1364 41.0313H48.5606ZM4 54.6875C6.4697 54.6875 7.90909 53.1719 8 50.875H5.95455C5.84848 52 5.0303 52.6094 4 52.6094C2.89394 52.6094 2.0303 51.9062 2.0303 50.6406V47.4844C2.0303 46.2188 2.89394 45.5156 4 45.5156C5.0303 45.5156 5.84848 46.1406 5.95455 47.25H8C7.90909 44.9531 6.4697 43.4375 4 43.4375C1.45455 43.4375 0 45.0625 0 47.4844V50.6406C0 53.0625 1.45455 54.6875 4 54.6875ZM13.1818 54.6875C15.7273 54.6875 17.1818 53.0625 17.1818 50.6406V47.4844C17.1818 45.0625 15.7273 43.4375 13.1818 43.4375C10.6364 43.4375 9.18182 45.0625 9.18182 47.4844V50.6406C9.18182 53.0625 10.6364 54.6875 13.1818 54.6875ZM15.1515 50.6406V47.4844C15.1515 46.2188 14.2879 45.5156 13.1818 45.5156C12.0758 45.5156 11.2121 46.2188 11.2121 47.4844V50.6406C11.2121 51.9062 12.0758 52.6094 13.1818 52.6094C14.2879 52.6094 15.1515 51.9062 15.1515 50.6406ZM18.8333 43.5938H20.8636V52.4531H25.2879V54.5312H18.8333V43.5938ZM28.303 45.6719H32.7273V43.5938H26.2727V54.5312H32.7273V52.4531H28.303V50.0469H32.7273V47.9688H28.303V45.6719ZM38.9545 54.625C40.9242 54.3281 42.0455 52.9062 42.1364 50.875H40.0909C39.9848 52 39.1667 52.6094 38.1364 52.6094C37.0303 52.6094 36.1667 51.9062 36.1667 50.6406V47.4844C36.1667 46.2188 37.0303 45.5156 38.1364 45.5156C39.1667 45.5156 39.9848 46.1406 40.0909 47.25H42.1364C42.0455 44.9531 40.6061 43.4375 38.1364 43.4375C35.5909 43.4375 34.1364 45.0625 34.1364 47.4844V50.6406C34.1364 52.7344 35.2273 54.2344 37.1667 54.5938L36.4091 57H38.4091L38.9545 54.625ZM48.5758 50.3438L47.3939 46.7969L46.2121 50.3438H48.5758ZM45.5152 52.3281H49.2727L50.0303 54.5312H52.1515L48.3636 43.5938H46.4242L42.6364 54.5312H44.7576L45.5152 52.3281ZM56.803 54.6875C59.3485 54.6875 60.803 53.0625 60.803 50.6406V47.4844C60.803 45.0625 59.3485 43.4375 56.803 43.4375C54.2576 43.4375 52.803 45.0625 52.803 47.4844V50.6406C52.803 53.0625 54.2576 54.6875 56.803 54.6875ZM58.7727 50.6406V47.4844C58.7727 46.2188 57.9091 45.5156 56.803 45.5156C55.697 45.5156 54.8333 46.2188 54.8333 47.4844V50.6406C54.8333 51.9062 55.697 52.6094 56.803 52.6094C57.9091 52.6094 58.7727 51.9062 58.7727 50.6406ZM69.3182 54.6875C71.8636 54.6875 73.3182 53.0625 73.3182 50.6406V47.4844C73.3182 45.0625 71.8636 43.4375 69.3182 43.4375C66.7727 43.4375 65.3182 45.0625 65.3182 47.4844V50.6406C65.3182 53.0625 66.7727 54.6875 69.3182 54.6875ZM71.2879 50.6406V47.4844C71.2879 46.2188 70.4242 45.5156 69.3182 45.5156C68.2121 45.5156 67.3485 46.2188 67.3485 47.4844V50.6406C67.3485 51.9062 68.2121 52.6094 69.3182 52.6094C70.4242 52.6094 71.2879 51.9062 71.2879 50.6406ZM74.9697 43.5938H77V54.5312H74.9697V43.5938Z" fill="#222222"/>
<path d="M57.4659 23.7617C60.4817 2.70057 34.9428 -8.94692 21.4756 8.42953C8.08303 25.6988 53.1956 53.5852 57.4243 24.0667L57.4659 23.7617Z" fill="url(#paint0_linear)"/>
<path fill-rule="evenodd" clip-rule="evenodd" d="M45.5966 13.2422C45.5966 14.216 44.8151 15.0016 43.8464 15.0016C42.8858 15.0016 42.1043 14.2078 42.1043 13.2422C42.1043 12.2685 42.8858 11.4829 43.8464 11.4829C44.8151 11.4829 45.5966 12.2767 45.5966 13.2422ZM42.0881 21.548C42.0881 18.6512 42.8858 16.3027 43.8708 16.3027C44.8558 16.3027 45.6536 18.6512 45.6536 21.548C45.6536 24.4447 44.8558 26.7933 43.8708 26.7933C42.8858 26.7933 42.0881 24.4447 42.0881 21.548ZM35.9338 16.2945C33.0032 16.2945 31.0576 18.6266 31.0576 21.5398C31.0576 24.4611 33.0032 26.7851 35.9338 26.7851C38.8563 26.7851 40.7937 24.4611 40.7937 21.5398C40.7937 18.6266 38.8563 16.2945 35.9338 16.2945ZM33.8498 21.5234C33.8498 22.9309 34.5906 24.3138 35.9338 24.3138C37.2689 24.3138 38.0096 22.9309 38.0096 21.5234C38.0096 20.1241 37.2689 18.7739 35.9338 18.7739C34.5906 18.7739 33.8498 20.1159 33.8498 21.5234Z" fill="white"/>
<defs>
<linearGradient id="paint0_linear" x1="11.9153" y1="16.446" x2="36.3968" y2="46.0193" gradientUnits="userSpaceOnUse">
<stop stop-color="#FFFF00"/>
<stop offset="0.0258712" stop-color="#FFF300"/>
<stop offset="0.139" stop-color="#FFC300"/>
<stop offset="0.2465" stop-color="#FF9D00"/>
<stop offset="0.3455" stop-color="#FF8200"/>
<stop offset="0.4331" stop-color="#FF7200"/>
<stop offset="0.5" stop-color="#FF6C00"/>
<stop offset="1" stop-color="#E9278B"/>
</linearGradient>
</defs>
</svg>
