<svg width="94" height="16" viewBox="0 0 94 16" fill="none" xmlns="http://www.w3.org/2000/svg">
<path d="M90.7895 13.2353H2.50635V2.9458H90.7895V13.2353V13.2353Z" fill="white"/>
<path d="M25.6225 7.2211V5.90555C25.6225 5.71761 25.4815 5.57666 25.2936 5.57666H19.4676C19.2796 5.57666 19.1387 5.71761 19.1387 5.90555V7.59698C19.2326 7.59698 19.3736 7.54999 19.4676 7.54999H25.2936C25.4815 7.54999 25.6225 7.40904 25.6225 7.2211V7.2211Z" fill="#338C2E"/>
<path d="M75.7074 7.2211V5.90555C75.7074 5.71761 75.5665 5.57666 75.3786 5.57666H69.5525C69.3646 5.57666 69.2236 5.71761 69.2236 5.90555V7.59698C69.3176 7.59698 69.4586 7.54999 69.5525 7.54999H75.3786C75.5665 7.54999 75.7074 7.40904 75.7074 7.2211V7.2211Z" fill="#338C2E"/>
<path d="M13.5002 5.57666H7.62723C7.43929 5.57666 7.29834 5.71761 7.29834 5.90555V7.59698C7.39231 7.59698 7.53326 7.54999 7.62723 7.54999H13.5002C13.6882 7.54999 13.8291 7.40904 13.8291 7.2211V5.90555C13.8291 5.71761 13.6882 5.57666 13.5002 5.57666V5.57666Z" fill="#338C2E"/>
<path fill-rule="evenodd" clip-rule="evenodd" d="M1.89536 0.455566H92.1049C92.9036 0.455566 93.5144 1.06636 93.5144 1.86509V13.846C93.5144 14.6448 92.8566 15.2556 92.1049 15.2556H1.89536C1.09663 15.2556 0.48584 14.5978 0.48584 13.846V1.86509C0.48584 1.06636 1.14362 0.455566 1.89536 0.455566ZM54.5646 11.8727H52.6852V3.79144H54.5646V11.8727ZM58.6992 5.48287H65.5589V3.83842H58.5582C57.1957 3.83842 56.4909 5.06001 56.4909 5.90573V9.80541C56.4909 10.7921 57.2896 11.8257 58.6992 11.8257H65.5589V10.0873H58.6992C58.5582 10.0873 58.3703 9.99334 58.3703 9.80541V8.53684H65.5589V6.84541H58.3703V5.76477C58.3703 5.62382 58.4643 5.48287 58.6992 5.48287ZM75.2846 11.8257L72.7474 9.28858H69.5995C69.4116 9.28858 69.2706 9.42953 69.2706 9.61747V11.2149V11.8727H67.5322V5.90573C67.5322 4.77811 68.4719 3.83842 69.5995 3.83842H75.4255C76.5531 3.83842 77.4928 4.77811 77.4928 5.90573V7.22128C77.4928 8.3489 76.5531 9.28858 75.4255 9.28858H75.1906L77.7747 11.8257H75.2846ZM88.4401 5.48287H81.5804C81.3455 5.48287 81.2516 5.62382 81.2516 5.76477V6.84541H88.4401V8.53684H81.2516V9.80541C81.2516 9.99334 81.4395 10.0873 81.5804 10.0873H88.4401V11.8257H81.5804C80.1709 11.8257 79.3722 10.7921 79.3722 9.80541V5.90573C79.3722 5.06001 80.077 3.83842 81.4395 3.83842H88.4401V5.48287ZM48.9265 11.8257H50.7119V3.83842H48.5506L45.4496 9.10065L42.4427 3.83842H40.2344V11.8727H42.0668V6.14065L44.7919 10.886H46.3424L48.9265 6.14065V11.8257ZM38.355 5.48287H31.4954C31.2604 5.48287 31.1665 5.62382 31.1665 5.76477V6.84541H38.355V8.53684H31.1665V9.80541C31.1665 9.99334 31.3544 10.0873 31.4954 10.0873H38.355V11.8257H31.4954C30.0858 11.8257 29.2871 10.7921 29.2871 9.80541V5.90573C29.2871 5.06001 29.9919 3.83842 31.3544 3.83842H38.355V5.48287ZM22.6623 9.28858L25.1995 11.8257H27.6896L25.1055 9.28858H25.2935C26.4211 9.28858 27.3608 8.3489 27.3608 7.22128V5.90573C27.3608 4.77811 26.4211 3.83842 25.2935 3.83842H19.4674C18.3398 3.83842 17.4001 4.77811 17.4001 5.90573V11.8727H19.1855V11.2149V9.61747C19.1855 9.42953 19.3265 9.28858 19.5144 9.28858H22.6623ZM15.4738 7.22128C15.4738 8.3489 14.5341 9.28858 13.4065 9.28858H7.62743C7.43949 9.28858 7.29854 9.42953 7.29854 9.61747V11.8727H5.56013V11.1679V5.90573C5.56013 4.77811 6.49981 3.83842 7.62743 3.83842H13.4065C14.5341 3.83842 15.4738 4.77811 15.4738 5.90573V7.22128Z" fill="#338C2E"/>
</svg>
